#N canvas 204 5 1076 718 12;
#X obj 138 234 f;
#X obj 138 282 hsl 128 15 0 127 0 0 empty empty empty -2 -8 0 10 #fcfcfc
#000000 #000000 0 1;
#X obj 138 131 tgl 15 0 empty empty empty 17 7 0 10 #fcfcfc #000000
#000000 0 1;
#X msg 33 186 0, f 2;
#X obj 138 106 bng 15 250 50 0 empty empty mylabel 20 10 0 10 #fcfcfc
#000000 #000000;
#X floatatom 147 311 5 0 0 0 - - - 0;
#X obj 235 177 select 1;
#X obj 138 151 t f f;
#X msg 232 208 0;
#X obj 138 258 + 10;
#X obj 149 366 > 100;
#X obj 149 402 select 1;
#X obj 138 207 metro 200;
#X msg 272 472 \; pd quit;
#X obj 356 334 r autoquit;
#X obj 272 415 f;
#X obj 272 444 select 1;
#X text 50 509 Quit automatically (e.g.: for batch testing);
#X obj 54 102 t b f;
#X obj 137 16 r autostart;
#N canvas 0 22 450 278 (subpatch) 0;
#X array array1 10 float 2;
#X coords 0 1 10 -1 200 140 1;
#X restore 687 90 graph;
#X msg 583 576 \; pd plugin-dispatch ::patch2svg::exportall \$1;
#X obj 583 483 symbol;
#X obj 669 338 r svgSavePath;
#X obj 670 304 s svgSavePath;
#X obj 669 363 list prepend symbol;
#X obj 669 389 list trim;
#X obj 633 426 tgl 15 0 empty empty empty 17 7 0 10 #fcfcfc #000000
#000000 0 1;
#X obj 633 407 bng 15 250 50 0 empty empty empty 17 7 0 10 #fcfcfc
#000000 #000000;
#X obj 583 456 spigot;
#X obj 272 334 r done;
#X obj 53 134 s done;
#X text 776 333 Use -send for this;
#X obj 356 364 tgl 15 0 empty empty empty 17 7 0 10 #fcfcfc #000000
#000000 0 1;
#X text 358 313 Use -send for this;
#X obj 582 344 r done;
#X obj 582 374 delay 50;
#X obj 272 367 delay 100;
#X msg 670 277 /tmp/mypath.svg;
#X obj 583 418 bng 15 250 50 0 empty empty empty 17 7 0 10 #fcfcfc
#000000 #000000;
#N canvas 830 231 450 300 test 1;
#N canvas 47 51 450 300 second 0;
#N canvas 68 74 450 300 third 0;
#X restore 175 138 pd third;
#X restore 171 100 pd second;
#X restore 313 673 pd test subpatches;
#X listbox 402 220 20 0 0 0 - - - 0;
#X obj 583 510 t s s;
#X obj 367 435 namecanvas mycnv;
#X msg 437 605 \; mycnv selectall;
#X obj 448 544 delay 500;
#X text 376 573 Test select behaviour;
#X obj 148 338 t f f;
#X obj 434 515 delay 1500;
#X obj 368 168 makefilename ___====%d;
#X msg 137 47 bang;
#X obj 138 76 delay 2000;
#X text 231 11 Use "-send" from the command line;
#X obj 434 466 r autostart;
#X msg 434 490 bang;
#N canvas 0 143 249 285 myscratch 1;
#X obj 100 10 pack f f f;
#X obj 100 50 nbx 5 14 -1e+37 1e+37 0 0 empty empty empty 0 -8 0 10
#fcfcfc #000000 #000000 0 256;
#X obj 100 90 hsl 128 15 0 127 0 0 empty empty empty -2 -8 0 10 #fcfcfc
#000000 #000000 0 1;
#X obj 100 130 bng 15 250 50 0 empty empty empty 17 7 0 10 #fcfcfc
#000000 #000000;
#X obj 100 170 vsl 15 128 0 127 0 0 empty empty empty 0 -9 0 10 #fcfcfc
#000000 #000000 0 1;
#X floatatom 150 210 0 0 0 0 - - - 0;
#X restore 304 646 pd myscratch;
#X obj 25 681 s pd-myscratch;
#X msg 169 645 clear;
#X obj 28 386 t b b b;
#X obj 532 300 list;
#X msg 16 541 obj 100 10 pack f f f \, obj 100 50 nbx \, obj 100 90
hslider \, obj 100 130 bng \, obj 100 170 vslider \, floatatom 150
210;
#X obj 61 583 delay 150;
#X obj 170 590 delay 375;
#X msg 60 622 selectall \, key 1 63233 0 \, key 0 63233 0;
#X text 65 601 Move;
#X msg 282 66 label_font 2 30;
#X msg 425 65 label_pos 1 30;
#X obj 425 38 delay 80;
#X obj 282 33 delay 100;
#X connect 0 0 9 0;
#X connect 1 0 5 0;
#X connect 2 0 7 0;
#X connect 3 0 18 0;
#X connect 4 0 2 0;
#X connect 5 0 47 0;
#X connect 6 0 8 0;
#X connect 7 0 12 0;
#X connect 7 1 6 0;
#X connect 8 0 0 0;
#X connect 9 0 1 0;
#X connect 9 0 0 1;
#X connect 10 0 11 0;
#X connect 11 0 3 0;
#X connect 12 0 0 0;
#X connect 14 0 33 0;
#X connect 15 0 16 0;
#X connect 16 0 13 0;
#X connect 18 0 31 0;
#X connect 18 1 2 0;
#X connect 19 0 50 0;
#X connect 22 0 42 0;
#X connect 23 0 25 0;
#X connect 23 0 28 0;
#X connect 25 0 26 0;
#X connect 26 0 22 1;
#X connect 27 0 29 1;
#X connect 28 0 27 0;
#X connect 29 0 22 0;
#X connect 30 0 37 0;
#X connect 33 0 15 1;
#X connect 35 0 36 0;
#X connect 35 0 44 0;
#X connect 36 0 39 0;
#X connect 37 0 15 0;
#X connect 38 0 24 0;
#X connect 39 0 29 0;
#X connect 42 0 21 0;
#X connect 45 0 44 0;
#X connect 47 0 10 0;
#X connect 47 1 49 0;
#X connect 48 0 45 0;
#X connect 48 0 44 0;
#X connect 49 0 41 0;
#X connect 50 0 51 0;
#X connect 51 0 4 0;
#X connect 51 0 58 0;
#X connect 51 0 68 0;
#X connect 53 0 54 0;
#X connect 54 0 48 0;
#X connect 57 0 56 0;
#X connect 58 0 62 0;
#X connect 58 1 61 0;
#X connect 58 2 60 0;
#X connect 60 0 56 0;
#X connect 61 0 63 0;
#X connect 62 0 57 0;
#X connect 63 0 56 0;
#X connect 65 0 4 0;
#X connect 66 0 4 0;
#X connect 67 0 66 0;
#X connect 68 0 67 0;
#X connect 68 0 65 0;
