#N canvas 271 5 1076 773 12;
#X obj 138 234 f;
#X obj 138 282 hsl 128 15 0 127 0 0 empty empty empty -2 -8 0 10 #fcfcfc #000000 #000000 0 1;
#X obj 138 131 tgl 15 0 empty empty empty 17 7 0 10 #fcfcfc #000000 #000000 0 1;
#X msg 33 186 0, f 2;
#X obj 138 106 bng 15 250 50 0 empty empty mylabel 20 10 0 10 #fcfcfc #000000 #000000;
#X floatatom 147 311 5 0 0 0 - - - 0;
#X obj 235 177 select 1;
#X obj 138 151 t f f;
#X msg 232 208 0;
#X obj 138 258 + 10;
#X obj 149 366 > 100;
#X obj 149 402 select 1;
#X obj 138 207 metro 200;
#X msg 272 472 \; pd quit;
#X obj 356 334 r autoquit;
#X obj 272 415 f;
#X obj 272 444 select 1;
#X text 50 509 Quit automatically (e.g.: for batch testing);
#X obj 54 102 t b f;
#X obj 137 16 r autostart;
#N canvas 0 22 450 278 (subpatch) 0;
#X array array1 10 float 2;
#X coords 0 1 10 -1 200 140 1;
#X restore 687 10 graph;
#X msg 653 496 \; pd plugin-dispatch ::patch2svg::exportall \$1;
#X obj 653 402 symbol;
#X obj 739 258 r svgSavePath;
#X obj 740 224 s svgSavePath;
#X obj 739 283 list prepend symbol;
#X obj 739 309 list trim;
#X obj 703 346 tgl 15 0 empty empty empty 17 7 0 10 #fcfcfc #000000 #000000 0 1;
#X obj 703 327 bng 15 250 50 0 empty empty empty 17 7 0 10 #fcfcfc #000000 #000000;
#X obj 653 376 spigot;
#X obj 272 334 r done;
#X obj 53 134 s done;
#X text 846 253 Use -send for this;
#X obj 356 364 tgl 15 0 empty empty empty 17 7 0 10 #fcfcfc #000000 #000000 0 1;
#X text 358 313 Use -send for this;
#X obj 652 264 r done;
#X obj 652 294 delay 50;
#X obj 272 367 delay 100;
#X msg 740 197 /tmp/mypath.svg;
#X obj 653 340 bng 15 250 50 0 empty empty empty 17 7 0 10 #fcfcfc #000000 #000000;
#N canvas 830 231 450 300 test 1;
#N canvas 47 51 450 300 second 0;
#N canvas 68 74 450 300 third 0;
#X restore 175 138 pd third;
#X restore 171 100 pd second;
#X restore 402 410 pd test subpatches;
#X listbox 402 220 20 0 0 0 - - - 0;
#X obj 653 430 t s s;
#X obj 401 438 namecanvas mycnv;
#X msg 633 683 \; mycnv selectall;
#X obj 644 622 delay 500;
#X text 656 649 Test select behaviour;
#X obj 148 338 t f f;
#X obj 630 593 delay 1500;
#X obj 368 168 makefilename ___====%d;
#X msg 137 47 bang;
#X obj 138 76 delay 2000;
#X text 231 11 Use "-send" from the command line;
#X obj 630 544 r autostart;
#X msg 630 568 bang;
#N canvas 0 143 270 360 myscratch 0;
#X restore 402 385 pd myscratch;
#X obj 25 691 s pd-myscratch;
#X msg 302 633 clear;
#X obj 303 612 delay 375;
#X msg 130 663 selectall \, key 1 63233 0 \, key 0 63233 0;
#X text 135 642 Move;
#X msg 282 66 label_font 2 30;
#X msg 425 65 label_pos 1 30;
#X obj 425 38 delay 80;
#X obj 282 33 delay 100;
#X symbolatom 387 254 10 0 0 0 - - - 0;
#X obj 131 624 delay 150;
#X obj 28 386 bang;
#X obj 25 615 delay 100;
#X obj 217 616 delay 180;
#X msg 25 644 editmode 1;
#X msg 217 640 editmode 0;
#X msg 5 530 obj 10 10 pack f f f \, obj 10 50 nbx \, obj 10 70 hslider \, obj 10 130 bng \, obj 10 170 vslider \, floatatom 102 87 5 0 0 0 float atom - - 0 \, listbox 95 129 20 0 0 0 list box - - 0 \, symbolatom 92 172 10 0 0 2 symbol atom - - 0 \, msg 178 155 my msg box \, text 170 200 my $comment;
#X connect 0 0 9 0;
#X connect 1 0 5 0;
#X connect 2 0 7 0;
#X connect 3 0 18 0;
#X connect 4 0 2 0;
#X connect 5 0 47 0;
#X connect 6 0 8 0;
#X connect 7 0 12 0;
#X connect 7 1 6 0;
#X connect 8 0 0 0;
#X connect 9 0 1 0;
#X connect 9 0 0 1;
#X connect 10 0 11 0;
#X connect 11 0 3 0;
#X connect 12 0 0 0;
#X connect 14 0 33 0;
#X connect 15 0 16 0;
#X connect 16 0 13 0;
#X connect 18 0 31 0;
#X connect 18 1 2 0;
#X connect 19 0 50 0;
#X connect 22 0 42 0;
#X connect 23 0 25 0;
#X connect 23 0 28 0;
#X connect 25 0 26 0;
#X connect 26 0 22 1;
#X connect 27 0 29 1;
#X connect 28 0 27 0;
#X connect 29 0 22 0;
#X connect 30 0 37 0;
#X connect 33 0 15 1;
#X connect 35 0 36 0;
#X connect 35 0 44 0;
#X connect 36 0 39 0;
#X connect 37 0 15 0;
#X connect 38 0 24 0;
#X connect 39 0 29 0;
#X connect 42 0 21 0;
#X connect 45 0 44 0;
#X connect 47 0 10 0;
#X connect 47 1 49 0;
#X connect 48 0 45 0;
#X connect 48 0 44 0;
#X connect 49 0 41 0;
#X connect 49 0 65 0;
#X connect 50 0 51 0;
#X connect 51 0 4 0;
#X connect 51 0 64 0;
#X connect 51 0 67 0;
#X connect 53 0 54 0;
#X connect 54 0 48 0;
#X connect 57 0 56 0;
#X connect 58 0 57 0;
#X connect 59 0 56 0;
#X connect 61 0 4 0;
#X connect 62 0 4 0;
#X connect 63 0 62 0;
#X connect 64 0 63 0;
#X connect 64 0 61 0;
#X connect 66 0 59 0;
#X connect 67 0 72 0;
#X connect 67 0 66 0;
#X connect 67 0 58 0;
#X connect 67 0 68 0;
#X connect 67 0 69 0;
#X connect 68 0 70 0;
#X connect 69 0 71 0;
#X connect 70 0 56 0;
#X connect 71 0 56 0;
#X connect 72 0 56 0;
