#N canvas 391 131 841 601 12;
#X obj 127 190 f;
#X obj 127 238 hsl 128 15 0 127 0 0 empty empty empty -2 -8 0 10 #fcfcfc #000000 #000000 0 1;
#X obj 127 87 tgl 15 0 empty empty empty 17 7 0 10 #fcfcfc #000000 #000000 0 1;
#X msg 36 230 0, f 2;
#X obj 127 62 bng 15 250 50 0 empty empty empty 17 7 0 10 #fcfcfc #000000 #000000;
#X floatatom 136 267 5 0 0 0 - - - 0;
#X obj 224 133 select 1;
#X obj 127 107 t f f;
#X msg 221 164 0;
#X obj 127 214 + 10;
#X obj 138 312 > 100;
#X obj 138 348 select 1;
#X obj 127 163 metro 200;
#X msg 261 407 \; pd quit;
#X obj 369 163 r autoquit;
#X floatatom 368 266 5 0 0 0 - - - 0;
#X obj 261 331 f;
#X obj 261 360 select 1;
#X text 145 462 Quit automatically (e.g.: for batch testing);
#X obj 261 384 delay 50;
#X obj 57 146 t b f;
#X obj 127 3 r autostart;
#X text 220 37 Use "-send" from the command line instead of loadbang so that the window is fully loaded;
#X text 221 66 TODO: that's not actually always true (it would seem) \, so also add a delay for good measure;
#X obj 127 32 delay 300;
#N canvas 0 22 450 278 (subpatch) 0;
#X array array1 10 float 2;
#X coords 0 1 10 -1 200 140 1;
#X restore 497 245 graph;
#X connect 0 0 9 0;
#X connect 1 0 5 0;
#X connect 2 0 7 0;
#X connect 3 0 20 0;
#X connect 4 0 2 0;
#X connect 5 0 10 0;
#X connect 6 0 8 0;
#X connect 7 0 12 0;
#X connect 7 1 6 0;
#X connect 8 0 0 0;
#X connect 9 0 1 0;
#X connect 9 0 0 1;
#X connect 10 0 11 0;
#X connect 11 0 3 0;
#X connect 12 0 0 0;
#X connect 14 0 15 0;
#X connect 15 0 16 1;
#X connect 16 0 17 0;
#X connect 17 0 19 0;
#X connect 19 0 13 0;
#X connect 20 0 16 0;
#X connect 20 1 2 0;
#X connect 21 0 24 0;
#X connect 24 0 4 0;
